<?xml version="1.0" encoding="UTF-8"?>
<svg version="1.1" xmlns="http://www.w3.org/2000/svg" width="500" height="500">
<path d="M0 0 C1.82721978 3.25721788 2.11394428 4.87963672 1.4375 8.5625 C-3.55565814 17.43922558 -14.66523801 20.12944777 -23.90356445 22.75952148 C-27.44753515 23.73172405 -31.00038675 24.65897857 -34.5625 25.5625 C-33.5209375 25.7584375 -32.479375 25.954375 -31.40625 26.15625 C-23.37914362 27.78619593 -16.03385338 29.88591275 -8.6875 33.5625 C-7.68106445 34.06040039 -7.68106445 34.06040039 -6.65429688 34.56835938 C-3.1264902 36.41764217 -0.53155789 38.05183095 1.4375 41.5625 C2.125 44.875 2.125 44.875 1.4375 48.5625 C-6.97132762 59.51733376 -21.87615059 61.90030007 -34.5625 64.5625 C-32.74878906 64.98208984 -32.74878906 64.98208984 -30.8984375 65.41015625 C-4.07156913 71.87565419 -4.07156913 71.87565419 2.4375 81.5625 C3.1831215 85.45630116 2.69462828 87.10538305 0.75 90.5625 C-12.52692146 104.89254837 -41.66598055 105.59312108 -59.75 106.375 C-83.73949572 107.17040993 -116.70681252 107.34522595 -136.5625 91.5625 C-138.91167723 89.21332277 -139.49068348 87.97544497 -140.0625 84.6875 C-139.39548641 80.51866506 -137.72643975 78.20388861 -134.5625 75.5625 C-127.51057299 71.0403535 -119.5594681 68.81502853 -111.5625 66.5625 C-110.264188 66.19187854 -108.96601016 65.82078677 -107.66796875 65.44921875 C-106.13076172 65.01029297 -106.13076172 65.01029297 -104.5625 64.5625 C-105.62726563 64.35496094 -106.69203125 64.14742188 -107.7890625 63.93359375 C-119.78618269 61.44553883 -132.25084794 58.21912849 -140.5625 48.5625 C-141.1875 45.0625 -141.1875 45.0625 -140.5625 41.5625 C-131.51472499 31.05063048 -117.57352727 28.09854769 -104.5625 25.5625 C-105.14628418 25.40692627 -105.73006836 25.25135254 -106.33154297 25.09106445 C-135.19698459 17.32617517 -135.19698459 17.32617517 -140.5625 8.5625 C-141.3824523 4.62672898 -140.84269965 3.06063271 -138.875 -0.4375 C-125.64583829 -14.59307359 -97.87752085 -15.61469807 -79.82421875 -16.33984375 C-18.86842997 -17.94801875 -18.86842997 -17.94801875 0 0 Z " fill="#060606" transform="translate(319.5625,191.4375)"/>
<path d="M0 0 C0.66 0.33 1.32 0.66 2 1 C1.030625 1.86625 0.06125 2.7325 -0.9375 3.625 C-3.91504038 6.56751049 -4.79692286 8.73538008 -5 13 C-5.33 13 -5.66 13 -6 13 C-6.3125 9.8125 -6.3125 9.8125 -6 6 C-3.5625 3.125 -3.5625 3.125 -1 1 C-0.67 0.67 -0.34 0.34 0 0 Z " fill="#707070" transform="translate(185,227)"/>
</svg>
